# xmcd CD database file
#
# Track frame offsets:
#	150
#	33151
#	62579
#	96120
#	124613
#
# Disc length: 2339 seconds
#
# Revision: 0
# Processed by: cddbd v1.5.2PL0 Copyright (c) Steve Scherf et al.
# Submitted via: CDex 1.51
#
DISCID=35092105
DTITLE=Triowabohu - short stories
DYEAR=2007
DGENRE=Jazz
TTITLE0=Storm loves open places
TTITLE1=Sad folks' song
TTITLE2=The hedgehog
TTITLE3=Sometimes we drown
TTITLE4=Albus Dumbledore
EXTD=YEAR: 2007
EXTT0=
EXTT1=
EXTT2=
EXTT3=
EXTT4=
PLAYORDER=
